<?xml version="1.0" encoding="utf-8"?>
<!-- Generator: Adobe Illustrator 15.0.0, SVG Export Plug-In  -->
<!DOCTYPE svg PUBLIC "-//W3C//DTD SVG 1.1//EN" "http://www.w3.org/Graphics/SVG/1.1/DTD/svg11.dtd" [
	<!ENTITY ns_flows "http://ns.adobe.com/Flows/1.0/">
]>
<svg version="1.1"
	 xmlns="http://www.w3.org/2000/svg" xmlns:xlink="http://www.w3.org/1999/xlink" xmlns:a="http://ns.adobe.com/AdobeSVGViewerExtensions/3.0/"
	 x="0px" y="0px" width="335px" height="55px" viewBox="-1.382 -1.326 335 55"
	 overflow="visible" enable-background="new -1.382 -1.326 335 55" xml:space="preserve">
<defs>
</defs>
<path fill="#FFFFFF" d="M44.174,21.768c-0.072,3.457-2.377,6.481-4.969,8.641c-3.024,2.592-6.769,4.32-10.441,5.472
	c-3.815,1.224-7.704,1.729-11.664,1.873c-3.024,0-5.617-0.216-7.777-0.648c-2.521-0.576-5.544-1.512-7.488-3.168
	c-1.152-1.08-2.017-2.448-1.801-3.96c0.217-1.512,1.297-2.808,2.448-3.384c-0.288,0.864-0.936,2.304-0.936,3.456
	c0,1.08,0.432,1.944,1.296,2.736c1.729,1.368,4.536,2.16,6.696,2.592c2.448,0.432,5.041,0.648,7.562,0.504
	c4.176-0.072,7.849-0.648,11.089-1.584c3.6-1.08,7.128-2.808,9.937-5.112c2.304-1.944,4.464-4.537,4.536-7.561
	c0-1.728-0.647-3.24-1.944-4.536c-1.728-1.728-4.104-2.664-6.48-3.096c-4.536-1.224-10.368-1.008-14.977-0.576
	c-5.329,0.576-8.857,1.656-10.514,1.872c-0.647,0.072-1.296,0-1.512-0.648c0-0.432,0.216-0.792,0.576-1.08
	c0.72-0.792,9.145-6.409,12.745-8.785c5.04-3.312,6.769-4.393,8.713-4.752c0.863-0.072,1.728,0,2.376,0.648
	c1.224,1.08-0.864,0.864-0.864,1.008c0,0-0.504-0.216-1.296,0c-1.513,0.216-3.024,1.08-8.064,4.392
	c-3.169,2.16-7.777,5.185-10.514,7.129c2.736-0.648,5.4-1.08,8.137-1.296c4.825-0.504,10.873-0.648,15.626,0.432
	c2.592,0.648,5.185,1.728,7.128,3.672C43.453,17.664,44.317,19.68,44.174,21.768z"/>
<path fill="#FFFFFF" d="M64.258,30.265c-1.655,0.36-3.384,0.792-5.112,1.008c-1.728,0.288-3.528,0.648-5.256,0.72
	c-1.656,0.144-4.32,0.216-5.617-0.72c-0.576-0.432-0.792-1.08-0.792-1.728c0-1.008,0.36-2.088,0.648-2.952
	c0.576-1.296,1.296-2.448,2.304-3.528c1.08-1.224,2.881-2.376,4.393-2.521c1.225-0.072,2.088,0.576,2.305,1.656
	c0.288,1.296-0.433,3.096-1.225,4.176c-1.152,1.512-2.592,2.809-4.32,3.601c-0.432,0.216-0.864,0.432-1.368,0.648
	c1.08,0.216,2.593,0.216,3.673,0.216c1.728,0,3.456-0.144,5.185-0.216C60.802,30.481,62.53,30.409,64.258,30.265z M49.137,29.977
	c0.648-0.36,1.368-0.648,1.944-1.008c1.512-0.72,2.664-1.944,3.528-3.312c0.576-0.792,1.224-2.304,1.008-3.168
	c0-0.216-0.216-0.432-0.647-0.288c-0.648,0.072-2.089,0.648-3.385,2.016c-0.72,0.864-1.512,2.088-1.944,3.024
	C49.353,28.033,48.993,29.185,49.137,29.977z"/>
<path fill="#FFFFFF" d="M79.019,30.265c-2.089,0.288-5.473,1.08-7.201,1.728c0.288,1.44,0.648,2.736,1.08,4.104
	c0.433,1.512,0.864,2.736,1.368,4.104c0.576,1.729,1.225,3.889,1.513,5.833c0.144,1.656,0,3.384-1.08,4.681
	c-0.864,1.08-2.16,1.512-3.528,1.584c-2.16,0.216-4.104-0.288-5.545-1.296c-1.729-1.152-2.88-3.024-3.24-5.256
	c-0.288-2.088,0.144-4.104,1.008-6.049c0.721-1.872,1.944-3.6,3.312-4.968c1.08-1.08,2.16-1.944,3.456-2.736
	c-0.071-0.864-0.288-1.728-0.288-2.592c-0.863,0.576-2.304,1.296-3.168,1.728c-0.72,0.36-1.584,0.648-2.448,0.576
	c-0.648,0-1.296-0.216-1.729-0.792c-0.863-0.936-1.008-2.592-1.008-3.96c0-1.512,0.36-3.024,0.433-4.464
	c0.216-0.936,1.728-0.72,1.655,0.216c-0.216,1.224-0.432,2.808-0.575,4.32c0,0.864,0,2.304,0.575,2.952
	c0.217,0.216,0.433,0.432,0.721,0.432c0.647,0,1.296-0.216,1.872-0.432c1.368-0.576,2.376-1.296,3.528-2.376
	c0-1.008,0.144-1.872,0.36-2.808c0.216-1.008,0.504-2.088,1.151-2.952c0.36-0.432,0.792-1.08,1.297-1.296
	c0.575-0.288,1.224-0.216,1.512,0.216c0.216,0.432,0.36,0.864,0.36,1.44c0,1.08-0.36,2.16-0.792,3.096
	c-0.648,1.08-1.368,2.088-2.232,2.953c0,1.08,0.072,2.016,0.288,3.096C73.474,30.625,76.714,30.265,79.019,30.265z M70.378,32.857
	c-1.08,0.792-2.017,1.656-2.881,2.592c-1.224,1.44-2.304,3.024-2.808,4.681c-0.793,1.8-1.081,3.528-0.864,5.4
	c0.432,1.8,1.296,3.312,2.664,4.32c1.224,0.72,2.736,1.152,4.32,1.08c1.08-0.144,2.088-0.432,2.736-1.224
	c0.72-0.936,0.864-2.376,0.647-3.528c-0.216-1.728-0.863-3.816-1.439-5.4c-0.433-1.44-0.937-2.736-1.368-4.248
	C70.953,35.377,70.594,34.153,70.378,32.857z M71.458,25.729c0.792-0.936,1.296-2.016,1.296-3.24
	C72.033,23.497,71.674,24.577,71.458,25.729z"/>
<path fill="#FFFFFF" d="M98.602,30.265c-2.088,0.576-4.536,1.224-6.696,1.296c-1.729,0.144-3.672,0-4.681-1.368
	c-0.432-0.576-0.72-1.296-0.72-2.088c-0.792,0.648-1.729,1.296-2.736,1.872c-1.08,0.648-2.232,1.152-3.528,1.512
	c-1.08,0.216-2.16,0.216-2.809-0.576c-0.792-0.72-0.647-2.016-0.359-3.024c0.792-1.584,2.592-3.24,4.032-4.32
	c1.296-1.08,3.456-2.448,5.04-2.376c1.009,0.216,1.513,1.008,1.44,1.872c-0.145,0.648-0.432,1.08-0.648,1.152
	c-0.576,0.576-1.296-0.216-0.864-0.72c0-0.144,0.072-0.432,0.072-0.576c0-0.288-0.936,0-1.152,0
	c-1.008,0.432-2.088,1.224-2.952,1.872c-1.151,0.936-2.88,2.376-3.528,3.672c-0.216,0.72-0.144,1.296,0,1.512
	c0.217,0.288,1.08,0.216,1.368,0.216c1.225-0.36,2.305-0.792,3.385-1.296c1.08-0.648,2.664-1.728,3.528-2.736
	c0.216-0.648,0.576-1.152,0.864-1.584c0.432-0.648,0.863-1.08,1.296-1.44c0.432-0.288,1.008-0.216,1.224,0.144
	c0.288,0.216,0.288,0.648,0.072,0.936c-0.432,0.864-0.936,1.512-1.729,2.16c-0.647,1.296-0.504,2.521-0.216,2.953
	c0.648,1.08,2.376,1.296,3.601,1.296C93.85,30.697,96.657,30.481,98.602,30.265z"/>
<path fill="#FFFFFF" d="M122.146,30.265c-0.575,0.432-1.512,0.864-2.16,1.224c-1.439,0.504-3.023,0.504-4.32-0.216
	c-1.439-0.648-2.304-1.944-2.808-3.456c-0.433-1.008-0.648-2.16-0.864-3.601c-0.576,0.864-1.225,1.729-1.729,2.592
	c-0.864,1.296-2.52,3.601-3.816,4.32c-0.647,0.216-1.151,0.36-1.368-0.288c-0.863-1.944-2.808-6.192-4.104-7.92
	c-0.217,1.44-0.648,2.952-1.08,4.464c-0.433,1.08-0.864,2.16-1.225,2.808c-0.432,0.864-1.08,2.016-1.944,1.944
	c-1.152-0.144-1.08-1.728-1.08-2.304c0-1.8,0-4.968,0.145-9.577c0-1.008,1.584-1.008,1.584,0.072
	c-0.072,3.601-0.216,6.409-0.216,9.289c0.432-0.72,0.863-1.944,1.224-2.809c0.433-1.296,0.864-2.448,0.937-3.744
	c0.216-0.864,0.144-1.008,0.359-1.44c0.217-0.72,0.937-1.08,1.729-0.504c0.288,0.216,0.504,0.504,0.864,0.936
	c1.296,1.729,3.24,5.833,3.888,7.489c1.801-1.44,3.457-3.816,4.537-5.833c0.216-0.36,0.288-0.792,1.296-2.52
	c0.432-0.72,1.512-0.432,1.512,0.432c-0.144,1.224,0,2.521,0.217,3.816c0.432,1.729,1.151,3.672,2.664,4.752
	c1.008,0.648,2.16,0.864,3.456,0.648C120.49,30.697,121.354,30.481,122.146,30.265z"/>
<path fill="#FFFFFF" d="M141.369,30.265c-2.088,0.576-4.536,1.224-6.696,1.296c-1.729,0.144-3.672,0-4.681-1.368
	c-0.432-0.576-0.72-1.296-0.72-2.088c-0.792,0.648-1.729,1.296-2.736,1.872c-1.08,0.648-2.232,1.152-3.528,1.512
	c-1.08,0.216-2.16,0.216-2.809-0.576c-0.792-0.72-0.647-2.016-0.359-3.024c0.792-1.584,2.592-3.24,4.032-4.32
	c1.296-1.08,3.456-2.448,5.04-2.376c1.009,0.216,1.513,1.008,1.44,1.872c-0.145,0.648-0.432,1.08-0.648,1.152
	c-0.576,0.576-1.296-0.216-0.864-0.72c0-0.144,0.072-0.432,0.072-0.576c0-0.288-0.936,0-1.152,0
	c-1.008,0.432-2.088,1.224-2.952,1.872c-1.151,0.936-2.88,2.376-3.528,3.672c-0.216,0.72-0.144,1.296,0,1.512
	c0.217,0.288,1.08,0.216,1.368,0.216c1.225-0.36,2.305-0.792,3.385-1.296c1.08-0.648,2.664-1.728,3.528-2.736
	c0.216-0.648,0.576-1.152,0.864-1.584c0.432-0.648,0.863-1.08,1.296-1.44c0.432-0.288,1.008-0.216,1.224,0.144
	c0.288,0.216,0.288,0.648,0.072,0.936c-0.432,0.864-0.936,1.512-1.729,2.16c-0.647,1.296-0.504,2.521-0.216,2.953
	c0.648,1.08,2.376,1.296,3.601,1.296C136.617,30.697,139.425,30.481,141.369,30.265z"/>
<path fill="#FFFFFF" d="M157.641,30.193c-2.376,1.368-5.616,1.8-8.28,1.8c-1.944-0.072-4.032-0.432-5.977-0.936
	c-1.729-0.432-3.097-1.08-3.097-1.08c0.072,0.648,0.288,0.864,0.433,1.152c0.071,0.36-0.145,0.648-0.433,0.864
	c-0.359,0.144-0.864,0-1.224-0.504c-0.504-1.008-0.504-3.457-0.504-4.896c0-3.457,0.216-7.345,0.504-10.657
	c0.144-1.296,0.576-4.536,1.08-5.616c0.432-0.864,1.872-0.432,1.44,0.504c-0.433,0.792-0.864,4.249-0.864,5.112
	c-0.36,3.457-0.648,8.497-0.576,11.953c3.168-2.376,6.265-4.752,9.433-7.201c0.864-0.648,1.8,0.504,0.937,1.152
	c-2.593,1.944-5.185,3.888-9.146,6.697c0.648,0.36,0.864,0.432,2.664,1.008c1.944,0.648,3.816,0.936,5.545,1.08
	C152.24,30.913,154.977,30.841,157.641,30.193z"/>
<path fill="#FFFFFF" d="M207.607,29.401c2.305,3.168,5.113,5.761,8.569,7.129c3.312,1.512,7.345,1.872,11.881,0.36
	c-4.536,2.232-8.785,2.376-12.313,0.936c-3.815-1.296-6.912-4.104-9.505-7.561c-2.376-3.096-4.248-6.697-5.616-10.225
	c-0.647-1.944-1.439-4.032-1.944-6.265c-0.575-1.728-0.863-3.456-1.224-5.184c-0.288,0.864-0.648,1.8-1.152,2.808
	c-2.304,4.536-5.616,9.073-9.072,12.961c2.592,0.072,4.536,0.072,6.552,0.072h6.625c-1.944,1.008-4.465,1.44-6.48,1.656
	c-2.593,0.216-5.616,0.216-8.137-0.216c-0.72,0.864-1.584,1.728-2.593,2.592c-1.296,1.152-2.664,2.376-4.104,3.457
	c-1.585,1.152-1.801,1.296-2.16,1.296c-0.648,0.072-1.368-0.576-1.297-1.728c0.145-0.648,0.433-1.512,0.864-2.088
	c0.36-0.432,1.008-0.072,0.864,0.432c-0.072,0.576-0.216,1.08-0.216,1.512c1.656-1.152,3.456-2.665,4.968-4.104
	c4.753-4.536,9.722-10.801,12.674-16.633c0.936-1.8,1.8-3.96,2.16-6.121c-0.145-1.224-0.216-2.376-0.36-3.6
	c0-0.864,1.08-1.152,1.513-0.288c0.216,0.432,0.359,0.936,0.432,1.368c0.144,0.792,0.144,1.512,0,2.16
	c0.432,2.952,1.008,5.977,1.872,9.217c0.648,2.016,1.296,4.176,1.944,6.048C203.647,22.848,205.376,26.376,207.607,29.401z"/>
<path fill="#FFFFFF" d="M231.726,21.192c-0.864-0.072-1.872-0.072-2.736,0.144c-1.368,0.288-2.232,1.152-3.097,2.376
	c-0.863,1.08-1.439,2.448-1.872,3.744c-0.288,1.224-0.504,2.161-0.72,2.953c-0.216,0.504-0.576,1.08-1.08,1.368
	c-0.432,0.216-1.08,0.216-1.44-0.072c-0.432-0.36-0.72-1.44-1.08-3.024c-0.216-1.656-0.432-3.456-0.504-4.536
	c-0.144-1.08,1.368-1.224,1.513-0.144c0.071,1.008,0.288,2.952,0.504,4.464c0.144,0.432,0.359,1.152,0.432,1.728
	c0.145-0.36,0.576-1.728,1.008-3.168c0.433-1.512,1.08-3.024,1.944-4.177c1.08-1.512,2.376-2.52,4.104-2.808
	c1.08-0.216,2.16-0.144,3.24,0.216C232.445,20.472,232.229,21.192,231.726,21.192z"/>
<path fill="#FFFFFF" d="M250.806,30.193c-2.376,1.368-5.616,1.8-8.28,1.8c-1.944-0.072-4.032-0.432-5.977-0.936
	c-1.729-0.432-3.097-1.08-3.097-1.08c0.072,0.648,0.288,0.864,0.433,1.152c0.071,0.36-0.145,0.648-0.433,0.864
	c-0.359,0.144-0.864,0-1.224-0.504c-0.504-1.008-0.504-3.457-0.504-4.896c0-3.457,0.216-7.345,0.504-10.657
	c0.144-1.296,0.576-4.536,1.08-5.616c0.432-0.864,1.872-0.432,1.44,0.504c-0.433,0.792-0.864,4.249-0.864,5.112
	c-0.36,3.457-0.648,8.497-0.576,11.953c3.168-2.376,6.265-4.752,9.433-7.201c0.864-0.648,1.8,0.504,0.937,1.152
	c-2.593,1.944-5.185,3.888-9.146,6.697c0.648,0.36,0.864,0.432,2.664,1.008c1.944,0.648,3.816,0.936,5.545,1.08
	C245.405,30.913,248.142,30.841,250.806,30.193z"/>
<path fill="#FFFFFF" d="M269.741,30.265c-2.089,0.576-4.537,1.224-6.697,1.296c-1.729,0.144-3.672,0-4.68-1.368
	c-0.433-0.576-0.721-1.296-0.721-2.088c-0.792,0.648-1.729,1.296-2.736,1.872c-1.08,0.648-2.232,1.152-3.527,1.512
	c-1.081,0.216-2.161,0.216-2.809-0.576c-0.792-0.72-0.648-2.016-0.36-3.024c0.792-1.584,2.593-3.24,4.032-4.32
	c1.297-1.08,3.457-2.448,5.041-2.376c1.008,0.216,1.512,1.008,1.439,1.872c-0.145,0.648-0.432,1.08-0.648,1.152
	c-0.576,0.576-1.295-0.216-0.863-0.72c0-0.144,0.072-0.432,0.072-0.576c0-0.288-0.937,0-1.152,0
	c-1.008,0.432-2.088,1.224-2.953,1.872c-1.151,0.936-2.88,2.376-3.527,3.672c-0.216,0.72-0.145,1.296,0,1.512
	c0.216,0.288,1.08,0.216,1.368,0.216c1.224-0.36,2.304-0.792,3.384-1.296c1.08-0.648,2.664-1.728,3.528-2.736
	c0.216-0.648,0.576-1.152,0.864-1.584c0.432-0.648,0.863-1.08,1.296-1.44c0.433-0.288,1.009-0.216,1.224,0.144
	c0.289,0.216,0.289,0.648,0.072,0.936c-0.432,0.864-0.936,1.512-1.729,2.16c-0.647,1.296-0.504,2.521-0.215,2.953
	c0.647,1.08,2.376,1.296,3.6,1.296C264.988,30.697,267.796,30.481,269.741,30.265z"/>
<path fill="#FFFFFF" d="M287.524,30.409c-1.368,0.504-3.096,0.936-4.608,1.152c-1.296,0-2.593,0-3.816-0.432
	c-2.231-0.72-3.097-3.024-3.024-5.4c0-1.08,0.217-2.16,0.576-3.24c-1.296,1.008-2.376,2.16-3.168,3.168
	c-0.937,1.296-2.017,2.808-2.881,4.104c-0.144,0.216-1.008,1.368-1.008,1.368c-0.432,0.648-1.368,0.36-1.368-0.432
	c0-1.368,0.072-2.809,0-4.104c0-1.08-0.144-2.808-0.36-3.888c-0.215-1.081,1.297-1.368,1.513-0.432
	c0.216,1.224,0.36,3.168,0.433,4.32v1.728c0.791-1.152,1.728-2.376,2.735-3.528c0.648-0.864,1.368-1.728,3.024-3.024
	c0.721-0.576,1.368-1.08,1.944-1.296c0.937-0.432,1.584,0.288,1.08,1.152c0,0-0.36,0.864-0.647,1.944
	c-0.433,1.656-0.648,3.816,0.215,5.185c0.937,1.44,2.809,1.728,4.609,1.728C284.429,30.625,286.156,30.409,287.524,30.409z"/>
<path fill="#FFFFFF" d="M306.028,30.265c-0.792,0.36-1.512,0.576-2.305,0.792c-1.584,0.288-3.312,0.504-4.824,0.288
	c-1.943-0.288-3.6-1.152-4.32-3.024c-0.432-0.936-0.647-2.232-0.647-3.528c-0.433,0.504-1.872,2.376-2.593,3.24
	c-0.792,0.936-1.439,1.728-2.376,2.448c-0.433,0.36-0.864,0.648-1.44,0.864c-0.863,0.36-1.296-0.216-1.296-0.648
	c0-0.432,0.144-2.376-0.216-4.321c-0.072-1.152-0.432-2.88-0.936-3.96c-0.576-0.864,0.72-1.656,1.295-0.792
	c0.648,1.081,1.08,3.168,1.297,4.537c0.072,1.08,0.216,2.304,0.216,3.384c1.08-0.648,1.8-1.512,2.448-2.376
	c2.592-3.024,3.601-4.681,4.032-5.185c0.216-0.36,0.72-1.008,0.937-1.296c0.792-0.648,1.729,0,1.439,0.864
	c0,0-0.359,0.504-0.576,1.08c-0.432,0.936-0.72,2.016-0.647,3.024c0,1.368,0.576,2.808,1.656,3.672
	c0.504,0.432,1.296,0.648,1.944,0.72c1.367,0.36,3.096,0.36,4.536,0.36C304.372,30.409,305.236,30.265,306.028,30.265z"/>
<path fill="#FFFFFF" d="M311.066,30.625c-0.647,0.432-1.585,0.72-2.16,0.936c-0.72,0.216-2.232,0.792-3.456,0.432
	c-0.864-0.216-1.152-0.936-1.513-1.8c-0.288-1.296-0.288-4.464-0.288-6.264c0-1.081,1.584-1.224,1.584-0.216
	c-0.072,1.8-0.072,4.825,0.217,6.048c0.216,0.432,0.359,0.72,0.791,0.937c0.433,0.432,1.801,0.216,2.593,0.144
	C309.554,30.697,310.419,30.625,311.066,30.625z M305.81,15.72c0.072-0.432,0.648-0.648,1.08-0.576
	c0.432,0.144,0.721,0.576,0.648,1.008c0,0.072-0.217,0.432-0.217,0.432c-0.144,0.504,0.433,0.504,0.072,0.936
	c-0.216,0.36-0.504,0.432-0.863,0.216c-0.289-0.216-0.504-0.504-0.721-0.864C305.666,16.224,305.81,15.792,305.81,15.72z"/>
<path fill="#FFFFFF" d="M332.235,30.265c-2.088,0.576-4.536,1.224-6.697,1.296c-1.728,0.144-3.672,0-4.68-1.368
	c-0.432-0.576-0.721-1.296-0.721-2.088c-0.791,0.648-1.728,1.296-2.735,1.872c-1.081,0.648-2.232,1.152-3.528,1.512
	c-1.08,0.216-2.16,0.216-2.809-0.576c-0.792-0.72-0.648-2.016-0.359-3.024c0.791-1.584,2.592-3.24,4.031-4.32
	c1.297-1.08,3.457-2.448,5.041-2.376c1.008,0.216,1.512,1.008,1.439,1.872c-0.144,0.648-0.432,1.08-0.647,1.152
	c-0.576,0.576-1.296-0.216-0.864-0.72c0-0.144,0.072-0.432,0.072-0.576c0-0.288-0.936,0-1.152,0
	c-1.008,0.432-2.088,1.224-2.952,1.872c-1.151,0.936-2.88,2.376-3.528,3.672c-0.216,0.72-0.145,1.296,0,1.512
	c0.217,0.288,1.08,0.216,1.368,0.216c1.224-0.36,2.304-0.792,3.384-1.296c1.08-0.648,2.665-1.728,3.529-2.736
	c0.216-0.648,0.576-1.152,0.863-1.584c0.433-0.648,0.864-1.08,1.297-1.44c0.432-0.288,1.008-0.216,1.224,0.144
	c0.288,0.216,0.288,0.648,0.072,0.936c-0.433,0.864-0.937,1.512-1.729,2.16c-0.647,1.296-0.504,2.521-0.216,2.953
	c0.648,1.08,2.376,1.296,3.6,1.296C327.483,30.697,330.291,30.481,332.235,30.265z"/>
</svg>
