<!DOCTYPE svg PUBLIC "-//W3C//DTD SVG 1.1//EN" "http://www.w3.org/Graphics/SVG/1.1/DTD/svg11.dtd" [
	<!ENTITY ns_flows "http://ns.adobe.com/Flows/1.0/">
]><svg xmlns="http://www.w3.org/2000/svg" width="335" height="55" viewBox="-1.382 -1.326 335 55" overflow="visible"><path fill="#FFF" d="M44.174 21.768c-.072 3.457-2.377 6.48-4.97 8.64-3.023 2.593-6.768 4.32-10.44 5.473-3.815 1.225-7.704 1.73-11.664 1.874-3.024 0-5.617-.216-7.777-.648-2.52-.576-5.544-1.512-7.488-3.168-1.152-1.08-2.017-2.448-1.8-3.96.216-1.512 1.296-2.808 2.447-3.384-.288.864-.936 2.304-.936 3.456 0 1.08.432 1.944 1.296 2.736 1.73 1.368 4.536 2.16 6.696 2.592 2.448.432 5.04.648 7.562.504 4.176-.072 7.85-.648 11.09-1.584 3.6-1.08 7.127-2.808 9.936-5.112 2.304-1.944 4.464-4.537 4.536-7.56 0-1.73-.647-3.24-1.944-4.537-1.728-1.73-4.104-2.665-6.48-3.097-4.536-1.224-10.368-1.008-14.977-.576-5.328.576-8.856 1.656-10.513 1.872-.647.07-1.296 0-1.512-.65 0-.43.216-.79.576-1.08.72-.79 9.146-6.408 12.746-8.784 5.04-3.312 6.77-4.393 8.713-4.752.862-.072 1.727 0 2.375.648 1.224 1.08-.864.864-.864 1.008 0 0-.503-.216-1.295 0-1.513.216-3.024 1.08-8.064 4.392-3.168 2.16-7.776 5.185-10.513 7.13 2.736-.65 5.4-1.08 8.137-1.297 4.825-.504 10.873-.648 15.626.432 2.592.648 5.185 1.728 7.128 3.672 1.655 1.654 2.52 3.67 2.376 5.758zM64.258 30.265c-1.655.36-3.384.792-5.112 1.008-1.728.288-3.528.648-5.256.72-1.656.144-4.32.216-5.617-.72-.576-.432-.792-1.08-.792-1.728 0-1.008.36-2.088.65-2.952.575-1.296 1.295-2.448 2.303-3.528 1.08-1.224 2.88-2.376 4.393-2.52 1.225-.073 2.088.575 2.305 1.655.29 1.296-.432 3.096-1.224 4.176-1.152 1.512-2.592 2.81-4.32 3.6-.432.217-.864.433-1.368.65 1.08.215 2.593.215 3.673.215 1.73 0 3.457-.143 5.186-.215 1.726-.144 3.454-.216 5.182-.36zm-15.12-.288c.647-.36 1.367-.648 1.943-1.008 1.513-.72 2.665-1.945 3.53-3.313.575-.792 1.223-2.304 1.007-3.168 0-.217-.216-.433-.647-.29-.648.073-2.09.65-3.385 2.017-.72.864-1.512 2.088-1.944 3.024-.287.793-.647 1.945-.503 2.737z"/><path fill="#FFF" d="M79.02 30.265c-2.09.288-5.474 1.08-7.202 1.728.288 1.44.648 2.736 1.08 4.104.433 1.512.864 2.736 1.368 4.104.576 1.73 1.225 3.89 1.513 5.834.143 1.656 0 3.384-1.08 4.68-.865 1.08-2.16 1.513-3.53 1.585-2.16.215-4.103-.29-5.544-1.297-1.73-1.152-2.88-3.024-3.24-5.256-.288-2.088.144-4.104 1.008-6.05.72-1.87 1.944-3.6 3.312-4.967 1.08-1.08 2.16-1.944 3.456-2.736-.07-.864-.288-1.728-.288-2.592-.863.576-2.304 1.296-3.168 1.728-.72.36-1.584.648-2.448.576-.648 0-1.296-.216-1.73-.792-.862-.936-1.007-2.592-1.007-3.96 0-1.512.36-3.024.434-4.464.216-.936 1.728-.72 1.655.216-.217 1.224-.433 2.808-.576 4.32 0 .864 0 2.304.575 2.952.216.216.432.432.72.432.647 0 1.296-.216 1.872-.432 1.368-.576 2.376-1.296 3.528-2.376 0-1.008.144-1.872.36-2.808.216-1.008.504-2.088 1.15-2.952.36-.432.793-1.08 1.298-1.296.575-.288 1.224-.216 1.512.216.216.432.36.864.36 1.44 0 1.08-.36 2.16-.792 3.096-.648 1.08-1.368 2.088-2.232 2.953 0 1.08.072 2.017.288 3.097 1.8-.722 5.04-1.082 7.345-1.082zm-8.642 2.592c-1.08.792-2.017 1.656-2.88 2.592-1.225 1.44-2.305 3.023-2.81 4.68-.792 1.8-1.08 3.528-.863 5.4.432 1.8 1.296 3.312 2.664 4.32 1.223.72 2.735 1.152 4.32 1.08 1.08-.144 2.087-.432 2.735-1.224.72-.936.864-2.376.647-3.528-.216-1.728-.863-3.816-1.44-5.4-.432-1.44-.936-2.736-1.367-4.248-.432-1.153-.79-2.377-1.007-3.673zm1.08-7.128c.792-.937 1.296-2.017 1.296-3.24-.72 1.007-1.08 2.087-1.296 3.24z"/><path fill="#FFF" d="M98.602 30.265c-2.088.576-4.536 1.224-6.696 1.296-1.73.145-3.672 0-4.68-1.367-.433-.576-.72-1.296-.72-2.088-.793.648-1.73 1.296-2.737 1.872-1.08.648-2.233 1.152-3.53 1.512-1.08.215-2.16.215-2.808-.577-.792-.72-.647-2.016-.36-3.024.793-1.585 2.593-3.24 4.033-4.32 1.296-1.08 3.456-2.45 5.04-2.377 1.01.216 1.513 1.008 1.44 1.872-.145.648-.432 1.08-.648 1.152-.576.576-1.296-.216-.864-.72 0-.144.072-.432.072-.576 0-.287-.936 0-1.152 0-1.008.433-2.088 1.225-2.952 1.873-1.15.936-2.88 2.376-3.527 3.672-.216.72-.144 1.296 0 1.512.217.288 1.08.216 1.368.216 1.226-.36 2.306-.792 3.386-1.296 1.08-.648 2.664-1.728 3.528-2.736.216-.647.576-1.15.864-1.583.432-.648.863-1.08 1.296-1.44.432-.288 1.008-.216 1.224.144.288.217.288.65.072.937-.432.864-.936 1.512-1.73 2.16-.646 1.296-.503 2.52-.215 2.953.648 1.08 2.376 1.296 3.6 1.296 1.945.07 4.752-.145 6.697-.36z"/><path fill="#FFF" d="M122.146 30.265c-.575.432-1.512.864-2.16 1.224-1.44.503-3.023.503-4.32-.217-1.44-.648-2.304-1.944-2.808-3.456-.433-1.008-.648-2.16-.864-3.6-.576.863-1.225 1.728-1.73 2.59-.863 1.297-2.52 3.602-3.815 4.32-.648.217-1.152.36-1.37-.287-.862-1.944-2.807-6.192-4.103-7.92-.217 1.44-.648 2.952-1.08 4.464-.433 1.08-.864 2.16-1.225 2.808-.432.864-1.08 2.016-1.944 1.944-1.152-.144-1.08-1.728-1.08-2.304 0-1.8 0-4.968.145-9.577 0-1.008 1.584-1.008 1.584.072-.072 3.6-.216 6.41-.216 9.29.433-.72.864-1.945 1.225-2.81.433-1.296.864-2.448.937-3.744.216-.864.144-1.008.36-1.44.216-.72.936-1.08 1.728-.504.288.215.504.503.864.935 1.296 1.73 3.24 5.833 3.888 7.49 1.8-1.44 3.457-3.817 4.537-5.834.215-.36.287-.79 1.295-2.52.432-.72 1.512-.43 1.512.433-.144 1.224 0 2.52.217 3.816.432 1.728 1.15 3.67 2.664 4.75 1.008.65 2.16.865 3.456.65.646-.143 1.51-.36 2.302-.575z"/><path fill="#FFF" d="M141.37 30.265c-2.09.576-4.537 1.224-6.697 1.296-1.73.145-3.672 0-4.68-1.367-.433-.576-.72-1.296-.72-2.088-.793.648-1.73 1.296-2.737 1.872-1.08.648-2.232 1.152-3.528 1.512-1.08.215-2.16.215-2.81-.577-.79-.72-.646-2.016-.358-3.024.792-1.585 2.592-3.24 4.032-4.32 1.296-1.08 3.456-2.45 5.04-2.377 1.01.216 1.513 1.008 1.44 1.872-.145.648-.432 1.08-.648 1.152-.576.576-1.296-.216-.864-.72 0-.144.072-.432.072-.576 0-.287-.936 0-1.152 0-1.008.433-2.088 1.225-2.952 1.873-1.15.936-2.88 2.376-3.528 3.672-.216.72-.144 1.296 0 1.512.217.288 1.08.216 1.368.216 1.225-.36 2.305-.792 3.385-1.296 1.08-.648 2.664-1.728 3.528-2.736.217-.647.577-1.15.865-1.583.432-.648.863-1.08 1.296-1.44.433-.288 1.01-.216 1.225.144.288.217.288.65.072.937-.432.864-.936 1.512-1.73 2.16-.646 1.296-.503 2.52-.215 2.953.648 1.08 2.376 1.296 3.6 1.296 1.945.07 4.753-.145 6.697-.36z"/><path fill="#FFF" d="M157.64 30.193c-2.375 1.368-5.615 1.8-8.28 1.8-1.943-.072-4.03-.432-5.976-.936-1.73-.432-3.097-1.08-3.097-1.08.072.648.288.864.433 1.152.07.36-.145.647-.433.863-.36.144-.864 0-1.224-.504-.504-1.01-.504-3.458-.504-4.897 0-3.457.215-7.345.503-10.657.144-1.296.576-4.536 1.08-5.616.432-.864 1.872-.432 1.44.504-.433.792-.864 4.25-.864 5.112-.36 3.457-.65 8.497-.577 11.953 3.168-2.377 6.265-4.753 9.433-7.202.864-.648 1.8.504.937 1.152-2.593 1.944-5.185 3.888-9.146 6.697.648.36.864.432 2.664 1.008 1.945.648 3.817.936 5.546 1.08 2.664.288 5.4.216 8.065-.432zM207.607 29.4c2.305 3.17 5.113 5.762 8.57 7.13 3.31 1.512 7.344 1.872 11.88.36-4.536 2.232-8.785 2.376-12.313.936-3.815-1.296-6.912-4.104-9.505-7.56-2.377-3.097-4.25-6.698-5.617-10.226-.647-1.944-1.44-4.032-1.944-6.265-.576-1.728-.864-3.456-1.225-5.184-.288.865-.648 1.8-1.152 2.81-2.304 4.535-5.616 9.072-9.072 12.96 2.593.072 4.537.072 6.553.072h6.625c-1.944 1.008-4.465 1.44-6.48 1.656-2.593.216-5.616.216-8.137-.216-.72.864-1.583 1.728-2.592 2.592-1.296 1.152-2.664 2.376-4.104 3.457-1.585 1.153-1.8 1.297-2.16 1.297-.648.072-1.368-.576-1.297-1.728.145-.65.433-1.513.864-2.09.36-.43 1.01-.07.865.433-.072.576-.216 1.08-.216 1.512 1.655-1.152 3.455-2.665 4.967-4.104 4.753-4.535 9.722-10.8 12.674-16.632.937-1.8 1.8-3.96 2.16-6.12-.144-1.225-.215-2.377-.36-3.6 0-.865 1.08-1.153 1.514-.29.216.433.36.937.432 1.37.144.79.144 1.51 0 2.16.432 2.95 1.008 5.976 1.872 9.216.648 2.016 1.296 4.176 1.944 6.048 1.295 3.456 3.024 6.984 5.255 10.01z"/><path fill="#FFF" d="M231.726 21.192c-.864-.072-1.872-.072-2.736.144-1.368.288-2.232 1.152-3.097 2.376-.863 1.08-1.44 2.448-1.872 3.744-.287 1.224-.503 2.16-.72 2.953-.215.503-.575 1.08-1.08 1.367-.43.216-1.08.216-1.44-.072-.43-.36-.72-1.44-1.08-3.024-.215-1.655-.43-3.455-.503-4.535-.144-1.08 1.368-1.224 1.513-.144.07 1.01.288 2.953.504 4.465.144.432.36 1.152.432 1.728.145-.36.576-1.728 1.008-3.168.433-1.512 1.08-3.024 1.944-4.177 1.08-1.512 2.376-2.52 4.104-2.808 1.08-.216 2.16-.144 3.24.216.503.216.287.936-.216.936z"/><path fill="#FFF" d="M250.806 30.193c-2.376 1.368-5.616 1.8-8.28 1.8-1.944-.072-4.032-.432-5.977-.936-1.73-.432-3.098-1.08-3.098-1.08.072.648.288.864.433 1.152.07.36-.145.647-.433.863-.36.144-.864 0-1.224-.504-.504-1.01-.504-3.458-.504-4.897 0-3.457.216-7.345.504-10.657.144-1.296.576-4.536 1.08-5.616.432-.864 1.872-.432 1.44.504-.433.792-.864 4.25-.864 5.112-.36 3.457-.648 8.497-.576 11.953 3.168-2.377 6.265-4.753 9.433-7.202.865-.648 1.8.504.938 1.152-2.593 1.944-5.185 3.888-9.146 6.697.648.36.864.432 2.664 1.008 1.944.648 3.816.936 5.545 1.08 2.665.288 5.402.216 8.066-.432z"/><path fill="#FFF" d="M269.74 30.265c-2.088.576-4.536 1.224-6.696 1.296-1.73.145-3.672 0-4.68-1.367-.433-.576-.72-1.296-.72-2.088-.793.648-1.73 1.296-2.737 1.872-1.08.648-2.232 1.152-3.527 1.512-1.08.215-2.16.215-2.81-.577-.79-.72-.647-2.016-.36-3.024.793-1.585 2.594-3.24 4.033-4.32 1.297-1.08 3.457-2.45 5.04-2.377 1.01.216 1.513 1.008 1.44 1.872-.145.648-.432 1.08-.648 1.152-.576.576-1.295-.216-.863-.72 0-.144.072-.432.072-.576 0-.287-.937 0-1.152 0-1.008.433-2.088 1.225-2.953 1.873-1.152.936-2.88 2.376-3.528 3.672-.216.72-.145 1.296 0 1.512.216.288 1.08.216 1.368.216 1.224-.36 2.304-.792 3.384-1.296 1.08-.648 2.664-1.728 3.528-2.736.216-.647.576-1.15.864-1.583.432-.648.863-1.08 1.296-1.44.433-.288 1.01-.216 1.224.144.29.217.29.65.072.937-.432.864-.936 1.512-1.73 2.16-.646 1.296-.503 2.52-.214 2.953.647 1.08 2.376 1.296 3.6 1.296 1.944.07 4.752-.145 6.697-.36z"/><path fill="#FFF" d="M287.524 30.41c-1.368.503-3.096.935-4.608 1.15-1.296 0-2.593 0-3.816-.43-2.23-.72-3.097-3.025-3.024-5.4 0-1.08.217-2.16.576-3.24-1.296 1.007-2.376 2.16-3.168 3.167-.937 1.296-2.017 2.808-2.88 4.104-.145.217-1.01 1.37-1.01 1.37-.43.647-1.367.36-1.367-.433 0-1.368.072-2.81 0-4.104 0-1.08-.144-2.808-.36-3.888-.215-1.08 1.297-1.368 1.513-.432.216 1.224.36 3.168.433 4.32v1.728c.79-1.15 1.728-2.375 2.735-3.527.648-.864 1.368-1.728 3.024-3.024.72-.577 1.368-1.08 1.944-1.297.937-.432 1.584.288 1.08 1.152 0 0-.36.864-.647 1.944-.434 1.655-.65 3.815.214 5.184.937 1.44 2.81 1.728 4.61 1.728 1.655.143 3.382-.073 4.75-.073z"/><path fill="#FFF" d="M306.028 30.265c-.792.36-1.512.576-2.305.792-1.584.288-3.312.504-4.824.288-1.944-.288-3.6-1.152-4.32-3.024-.433-.935-.648-2.23-.648-3.527-.433.504-1.872 2.376-2.593 3.24-.793.936-1.44 1.728-2.377 2.448-.433.36-.864.65-1.44.865-.863.36-1.296-.216-1.296-.648 0-.432.144-2.376-.216-4.32-.07-1.153-.43-2.88-.935-3.96-.576-.865.72-1.657 1.295-.793.648 1.08 1.08 3.168 1.297 4.537.072 1.08.216 2.305.216 3.385 1.08-.648 1.8-1.512 2.448-2.376 2.593-3.025 3.602-4.682 4.033-5.186.216-.36.72-1.008.937-1.296.792-.648 1.73 0 1.44.864 0 0-.36.504-.577 1.08-.432.936-.72 2.016-.647 3.024 0 1.368.576 2.808 1.656 3.672.504.432 1.296.648 1.944.72 1.367.36 3.096.36 4.536.36.72 0 1.584-.143 2.376-.143z"/><path fill="#FFF" d="M311.066 30.625c-.647.432-1.585.72-2.16.936-.72.217-2.232.793-3.456.433-.864-.216-1.152-.936-1.513-1.8-.288-1.296-.288-4.464-.288-6.264 0-1.082 1.583-1.225 1.583-.217-.072 1.8-.072 4.825.217 6.048.216.433.36.72.79.938.434.432 1.802.216 2.594.144.72-.145 1.585-.217 2.232-.217zM305.81 15.72c.072-.432.648-.648 1.08-.576.432.144.72.576.648 1.008 0 .072-.217.432-.217.432-.143.504.434.504.073.936-.216.36-.504.432-.863.216-.29-.216-.504-.504-.72-.864-.144-.648 0-1.08 0-1.152z"/><path fill="#FFF" d="M332.235 30.265c-2.088.576-4.536 1.224-6.697 1.296-1.728.145-3.672 0-4.68-1.367-.432-.576-.72-1.296-.72-2.088-.792.648-1.73 1.296-2.736 1.872-1.08.648-2.232 1.152-3.528 1.512-1.08.215-2.16.215-2.81-.577-.79-.72-.647-2.016-.358-3.024.79-1.585 2.592-3.24 4.03-4.32 1.298-1.08 3.458-2.45 5.042-2.377 1.008.216 1.512 1.008 1.44 1.872-.145.648-.433 1.08-.648 1.152-.576.576-1.296-.216-.864-.72 0-.144.072-.432.072-.576 0-.287-.936 0-1.152 0-1.008.433-2.088 1.225-2.952 1.873-1.15.936-2.88 2.376-3.528 3.672-.216.72-.145 1.296 0 1.512.217.288 1.08.216 1.368.216 1.224-.36 2.304-.792 3.384-1.296 1.08-.648 2.665-1.728 3.53-2.736.215-.647.575-1.15.862-1.583.433-.648.864-1.08 1.297-1.44.432-.288 1.008-.216 1.224.144.29.217.29.65.073.937-.433.864-.937 1.512-1.73 2.16-.646 1.296-.503 2.52-.215 2.953.648 1.08 2.376 1.296 3.6 1.296 1.945.07 4.753-.145 6.697-.36z"/></svg>